<svg xmlns="http://www.w3.org/2000/svg" width="600" height="380" viewBox="0 0 600 380" role="img" aria-label="QR en servilleta">
  <defs>
    <linearGradient id="bg" x1="0" y1="0" x2="1" y2="1">
      <stop offset="0" stop-color="#0c1118"/>
      <stop offset="1" stop-color="#161e2b"/>
    </linearGradient>
    <radialGradient id="glow" cx="0.2" cy="0.2" r="0.6">
      <stop offset="0" stop-color="#1dd3c2" stop-opacity="0.35"/>
      <stop offset="1" stop-color="#1dd3c2" stop-opacity="0"/>
    </radialGradient>
  </defs>
  <rect width="600" height="380" rx="28" fill="url(#bg)"/>
  <rect width="600" height="380" rx="28" fill="url(#glow)"/>

  <g transform="translate(60 60)">
    <rect x="0" y="0" width="240" height="240" rx="18" fill="#e6e6e6"/>
    <rect x="10" y="10" width="220" height="220" rx="12" fill="#f7f7f7"/>

    <g fill="#1a1a1a">
      <rect x="40" y="40" width="48" height="48" rx="4"/>
      <rect x="152" y="40" width="48" height="48" rx="4"/>
      <rect x="40" y="152" width="48" height="48" rx="4"/>

      <rect x="54" y="54" width="20" height="20" rx="2" fill="#f7f7f7"/>
      <rect x="166" y="54" width="20" height="20" rx="2" fill="#f7f7f7"/>
      <rect x="54" y="166" width="20" height="20" rx="2" fill="#f7f7f7"/>

      <rect x="60" y="60" width="8" height="8"/>
      <rect x="172" y="60" width="8" height="8"/>
      <rect x="60" y="172" width="8" height="8"/>

      <rect x="104" y="52" width="10" height="10"/>
      <rect x="120" y="68" width="10" height="10"/>
      <rect x="136" y="52" width="10" height="10"/>
      <rect x="104" y="84" width="10" height="10"/>
      <rect x="136" y="84" width="10" height="10"/>

      <rect x="104" y="116" width="10" height="10"/>
      <rect x="120" y="132" width="10" height="10"/>
      <rect x="136" y="116" width="10" height="10"/>
      <rect x="152" y="132" width="10" height="10"/>

      <rect x="104" y="164" width="10" height="10"/>
      <rect x="120" y="180" width="10" height="10"/>
      <rect x="136" y="164" width="10" height="10"/>
      <rect x="152" y="180" width="10" height="10"/>
    </g>
  </g>
</svg>
